# xmcd
#
# Track frame offsets: 
#        150
#        22628
#        37264
#        55643
#        79669
#        94001
#        112012
#        137496
#        162377
#
# Disc length: 2433 seconds
#
# Revision: 0
# Processed by: cddbd v1.5.2PL0 Copyright (c) Steve Scherf et al.
# Submitted via: ExactAudioCopy v1.0b4
#
DISCID=67097f09
DTITLE=Copper Smoke - Second Chance
DYEAR=2014
DGENRE=Country-Rock
TTITLE0=Second Chance
TTITLE1=Changes
TTITLE2=Getaway Car
TTITLE3=Final Destination
TTITLE4=Against My Fate
TTITLE5=Train Keeps On Rollin'
TTITLE6=Kill The Pain
TTITLE7=Better Off Alone
TTITLE8=Second Chance (Acoustic Version) 
EXTD=
EXTT0=
EXTT1=
EXTT2=
EXTT3=
EXTT4=
EXTT5=
EXTT6=
EXTT7=
EXTT8=
PLAYORDER=
